<svg xmlns="http://www.w3.org/2000/svg" width="48.432" height="41.537" viewBox="0 0 48.432 41.537">
  <g id="back_button_icon" data-name="back button icon" transform="translate(-79.54 -128)">
    <path id="Path" d="M15.945,9.418H4.581L9.02,13.833a1.379,1.379,0,0,1,0,1.92,1.348,1.348,0,0,1-1.9,0L.376,9.023a1.392,1.392,0,0,1,0-1.9L7.123.39a1.348,1.348,0,0,1,1.9,0,1.416,1.416,0,0,1,.394.951,1.379,1.379,0,0,1-.394.951L4.581,6.726H15.945a1.346,1.346,0,0,1,0,2.692Z" transform="translate(95.112 140.283)" fill="#fff"/>
    <path id="Path-2" data-name="Path" d="M32.711,0H13.744C5.525,0,0,4.489,0,11.189V28.328c0,6.7,5.525,11.209,13.744,11.209H32.711c8.2,0,13.721-4.507,13.721-11.209V11.189C46.432,4.489,40.906,0,32.711,0Z" transform="translate(80.54 129)" fill="none" stroke="#fff" stroke-width="2"/>
  </g>
</svg>
