<svg id="Capa_1" enable-background="new 0 0 496.55 496.55" height="512" viewBox="0 0 496.55 496.55" width="512" xmlns="http://www.w3.org/2000/svg"><g><path d="m492.825 228.166-78.502-57.51v-117.063c0-11.461-9.324-20.785-20.786-20.785h-30.37c-11.461 0-20.785 9.324-20.785 20.785v64.359l-88.726-65c-3.204-2.347-7.558-2.347-10.762 0l-239.17 175.214c-3.177 2.327-4.497 6.432-3.273 10.175s4.716 6.274 8.653 6.274h44.376v210.023c0 5.028 4.076 9.105 9.105 9.105h136.839c5.028 0 9.105-4.076 9.105-9.105v-131.086h79.495v131.086c0 5.028 4.076 9.105 9.105 9.105h136.838c5.028 0 9.105-4.076 9.105-9.105v-210.023h44.375c3.938 0 7.429-2.531 8.653-6.274 1.222-3.743-.098-7.848-3.275-10.175zm-132.234-174.573c0-1.397 1.18-2.576 2.576-2.576h30.37c1.397 0 2.577 1.18 2.577 2.576v103.723l-35.523-26.024zm-54.359 391.94v-131.086c0-5.028-4.076-9.105-9.105-9.105h-97.704c-5.028 0-9.105 4.076-9.105 9.105v131.086h-118.629v-205.655l176.582-128.918 176.589 129.11v205.464h-118.628zm130.792-219.127-183.376-134.071c-3.199-2.339-7.543-2.34-10.742-.004l-183.645 134.075h-22.322l211.336-154.823 211.336 154.823z"/></g></svg>